<mxfile host="app.diagrams.net" agent="Mozilla/5.0 (Windows NT 10.0; Win64; x64) AppleWebKit/537.36 (KHTML, like Gecko) Chrome/132.0.0.0 YaBrowser/25.2.0.0 Safari/537.36" version="26.1.0">
  <diagram name="Страница — 1" id="BCbFYERtnjzjDZ_Aoc0k">
    <mxGraphModel dx="1834" dy="863" grid="1" gridSize="10" guides="1" tooltips="1" connect="1" arrows="1" fold="1" page="1" pageScale="1" pageWidth="827" pageHeight="1169" math="0" shadow="0">
      <root>
        <mxCell id="0" />
        <mxCell id="1" parent="0" />
        <mxCell id="kwLmYJiWEPaTlT8nFMHR-1" value="" style="shape=table;startSize=0;container=1;collapsible=0;childLayout=tableLayout;" vertex="1" parent="1">
          <mxGeometry x="300" y="320" width="380" height="320" as="geometry" />
        </mxCell>
        <mxCell id="kwLmYJiWEPaTlT8nFMHR-26" style="shape=tableRow;horizontal=0;startSize=0;swimlaneHead=0;swimlaneBody=0;strokeColor=inherit;top=0;left=0;bottom=0;right=0;collapsible=0;dropTarget=0;fillColor=none;points=[[0,0.5],[1,0.5]];portConstraint=eastwest;" vertex="1" parent="kwLmYJiWEPaTlT8nFMHR-1">
          <mxGeometry width="380" height="53" as="geometry" />
        </mxCell>
        <mxCell id="kwLmYJiWEPaTlT8nFMHR-27" value="&lt;span style=&quot;font-size: 12px;&quot;&gt;Поле&lt;/span&gt;" style="shape=partialRectangle;html=1;whiteSpace=wrap;connectable=0;strokeColor=inherit;overflow=hidden;fillColor=none;top=0;left=0;bottom=0;right=0;pointerEvents=1;" vertex="1" parent="kwLmYJiWEPaTlT8nFMHR-26">
          <mxGeometry width="126" height="53" as="geometry">
            <mxRectangle width="126" height="53" as="alternateBounds" />
          </mxGeometry>
        </mxCell>
        <mxCell id="kwLmYJiWEPaTlT8nFMHR-28" value="&lt;span style=&quot;font-size: 12px;&quot;&gt;Тип&lt;/span&gt;" style="shape=partialRectangle;html=1;whiteSpace=wrap;connectable=0;strokeColor=inherit;overflow=hidden;fillColor=none;top=0;left=0;bottom=0;right=0;pointerEvents=1;" vertex="1" parent="kwLmYJiWEPaTlT8nFMHR-26">
          <mxGeometry x="126" width="128" height="53" as="geometry">
            <mxRectangle width="128" height="53" as="alternateBounds" />
          </mxGeometry>
        </mxCell>
        <mxCell id="kwLmYJiWEPaTlT8nFMHR-29" value="&lt;span style=&quot;font-size: 12px;&quot;&gt;Описание&lt;/span&gt;" style="shape=partialRectangle;html=1;whiteSpace=wrap;connectable=0;strokeColor=inherit;overflow=hidden;fillColor=none;top=0;left=0;bottom=0;right=0;pointerEvents=1;" vertex="1" parent="kwLmYJiWEPaTlT8nFMHR-26">
          <mxGeometry x="254" width="126" height="53" as="geometry">
            <mxRectangle width="126" height="53" as="alternateBounds" />
          </mxGeometry>
        </mxCell>
        <mxCell id="kwLmYJiWEPaTlT8nFMHR-2" value="" style="shape=tableRow;horizontal=0;startSize=0;swimlaneHead=0;swimlaneBody=0;strokeColor=inherit;top=0;left=0;bottom=0;right=0;collapsible=0;dropTarget=0;fillColor=none;points=[[0,0.5],[1,0.5]];portConstraint=eastwest;" vertex="1" parent="kwLmYJiWEPaTlT8nFMHR-1">
          <mxGeometry y="53" width="380" height="53" as="geometry" />
        </mxCell>
        <mxCell id="kwLmYJiWEPaTlT8nFMHR-3" value="id" style="shape=partialRectangle;html=1;whiteSpace=wrap;connectable=0;strokeColor=inherit;overflow=hidden;fillColor=none;top=0;left=0;bottom=0;right=0;pointerEvents=1;" vertex="1" parent="kwLmYJiWEPaTlT8nFMHR-2">
          <mxGeometry width="126" height="53" as="geometry">
            <mxRectangle width="126" height="53" as="alternateBounds" />
          </mxGeometry>
        </mxCell>
        <mxCell id="kwLmYJiWEPaTlT8nFMHR-4" value="Integer" style="shape=partialRectangle;html=1;whiteSpace=wrap;connectable=0;strokeColor=inherit;overflow=hidden;fillColor=none;top=0;left=0;bottom=0;right=0;pointerEvents=1;" vertex="1" parent="kwLmYJiWEPaTlT8nFMHR-2">
          <mxGeometry x="126" width="128" height="53" as="geometry">
            <mxRectangle width="128" height="53" as="alternateBounds" />
          </mxGeometry>
        </mxCell>
        <mxCell id="kwLmYJiWEPaTlT8nFMHR-5" value="Уникальный идентификатор товара" style="shape=partialRectangle;html=1;whiteSpace=wrap;connectable=0;strokeColor=inherit;overflow=hidden;fillColor=none;top=0;left=0;bottom=0;right=0;pointerEvents=1;" vertex="1" parent="kwLmYJiWEPaTlT8nFMHR-2">
          <mxGeometry x="254" width="126" height="53" as="geometry">
            <mxRectangle width="126" height="53" as="alternateBounds" />
          </mxGeometry>
        </mxCell>
        <mxCell id="kwLmYJiWEPaTlT8nFMHR-6" value="" style="shape=tableRow;horizontal=0;startSize=0;swimlaneHead=0;swimlaneBody=0;strokeColor=inherit;top=0;left=0;bottom=0;right=0;collapsible=0;dropTarget=0;fillColor=none;points=[[0,0.5],[1,0.5]];portConstraint=eastwest;" vertex="1" parent="kwLmYJiWEPaTlT8nFMHR-1">
          <mxGeometry y="106" width="380" height="54" as="geometry" />
        </mxCell>
        <mxCell id="kwLmYJiWEPaTlT8nFMHR-7" value="&lt;span style=&quot;font-size: 12px;&quot;&gt;name&lt;/span&gt;" style="shape=partialRectangle;html=1;whiteSpace=wrap;connectable=0;strokeColor=inherit;overflow=hidden;fillColor=none;top=0;left=0;bottom=0;right=0;pointerEvents=1;" vertex="1" parent="kwLmYJiWEPaTlT8nFMHR-6">
          <mxGeometry width="126" height="54" as="geometry">
            <mxRectangle width="126" height="54" as="alternateBounds" />
          </mxGeometry>
        </mxCell>
        <mxCell id="kwLmYJiWEPaTlT8nFMHR-8" value="&lt;span style=&quot;font-size: 12px;&quot;&gt;String&lt;/span&gt;" style="shape=partialRectangle;html=1;whiteSpace=wrap;connectable=0;strokeColor=inherit;overflow=hidden;fillColor=none;top=0;left=0;bottom=0;right=0;pointerEvents=1;" vertex="1" parent="kwLmYJiWEPaTlT8nFMHR-6">
          <mxGeometry x="126" width="128" height="54" as="geometry">
            <mxRectangle width="128" height="54" as="alternateBounds" />
          </mxGeometry>
        </mxCell>
        <mxCell id="kwLmYJiWEPaTlT8nFMHR-9" value="&lt;span style=&quot;font-size: 12px;&quot;&gt;Название товара&lt;/span&gt;" style="shape=partialRectangle;html=1;whiteSpace=wrap;connectable=0;strokeColor=inherit;overflow=hidden;fillColor=none;top=0;left=0;bottom=0;right=0;pointerEvents=1;" vertex="1" parent="kwLmYJiWEPaTlT8nFMHR-6">
          <mxGeometry x="254" width="126" height="54" as="geometry">
            <mxRectangle width="126" height="54" as="alternateBounds" />
          </mxGeometry>
        </mxCell>
        <mxCell id="kwLmYJiWEPaTlT8nFMHR-10" value="" style="shape=tableRow;horizontal=0;startSize=0;swimlaneHead=0;swimlaneBody=0;strokeColor=inherit;top=0;left=0;bottom=0;right=0;collapsible=0;dropTarget=0;fillColor=none;points=[[0,0.5],[1,0.5]];portConstraint=eastwest;" vertex="1" parent="kwLmYJiWEPaTlT8nFMHR-1">
          <mxGeometry y="160" width="380" height="53" as="geometry" />
        </mxCell>
        <mxCell id="kwLmYJiWEPaTlT8nFMHR-11" value="&lt;span style=&quot;font-size: 12px;&quot;&gt;price&lt;/span&gt;" style="shape=partialRectangle;html=1;whiteSpace=wrap;connectable=0;strokeColor=inherit;overflow=hidden;fillColor=none;top=0;left=0;bottom=0;right=0;pointerEvents=1;" vertex="1" parent="kwLmYJiWEPaTlT8nFMHR-10">
          <mxGeometry width="126" height="53" as="geometry">
            <mxRectangle width="126" height="53" as="alternateBounds" />
          </mxGeometry>
        </mxCell>
        <mxCell id="kwLmYJiWEPaTlT8nFMHR-12" value="&lt;span style=&quot;font-size: 12px;&quot;&gt;Double&lt;/span&gt;" style="shape=partialRectangle;html=1;whiteSpace=wrap;connectable=0;strokeColor=inherit;overflow=hidden;fillColor=none;top=0;left=0;bottom=0;right=0;pointerEvents=1;" vertex="1" parent="kwLmYJiWEPaTlT8nFMHR-10">
          <mxGeometry x="126" width="128" height="53" as="geometry">
            <mxRectangle width="128" height="53" as="alternateBounds" />
          </mxGeometry>
        </mxCell>
        <mxCell id="kwLmYJiWEPaTlT8nFMHR-13" value="&lt;span style=&quot;font-size: 12px;&quot;&gt;Цена товара&lt;/span&gt;" style="shape=partialRectangle;html=1;whiteSpace=wrap;connectable=0;strokeColor=inherit;overflow=hidden;fillColor=none;top=0;left=0;bottom=0;right=0;pointerEvents=1;" vertex="1" parent="kwLmYJiWEPaTlT8nFMHR-10">
          <mxGeometry x="254" width="126" height="53" as="geometry">
            <mxRectangle width="126" height="53" as="alternateBounds" />
          </mxGeometry>
        </mxCell>
        <mxCell id="kwLmYJiWEPaTlT8nFMHR-14" value="" style="shape=tableRow;horizontal=0;startSize=0;swimlaneHead=0;swimlaneBody=0;strokeColor=inherit;top=0;left=0;bottom=0;right=0;collapsible=0;dropTarget=0;fillColor=none;points=[[0,0.5],[1,0.5]];portConstraint=eastwest;" vertex="1" parent="kwLmYJiWEPaTlT8nFMHR-1">
          <mxGeometry y="213" width="380" height="53" as="geometry" />
        </mxCell>
        <mxCell id="kwLmYJiWEPaTlT8nFMHR-15" value="&lt;span style=&quot;font-size: 12px;&quot;&gt;quantity&lt;/span&gt;" style="shape=partialRectangle;html=1;whiteSpace=wrap;connectable=0;strokeColor=inherit;overflow=hidden;fillColor=none;top=0;left=0;bottom=0;right=0;pointerEvents=1;" vertex="1" parent="kwLmYJiWEPaTlT8nFMHR-14">
          <mxGeometry width="126" height="53" as="geometry">
            <mxRectangle width="126" height="53" as="alternateBounds" />
          </mxGeometry>
        </mxCell>
        <mxCell id="kwLmYJiWEPaTlT8nFMHR-16" value="&lt;span style=&quot;font-size: 12px;&quot;&gt;Integer&lt;/span&gt;" style="shape=partialRectangle;html=1;whiteSpace=wrap;connectable=0;strokeColor=inherit;overflow=hidden;fillColor=none;top=0;left=0;bottom=0;right=0;pointerEvents=1;" vertex="1" parent="kwLmYJiWEPaTlT8nFMHR-14">
          <mxGeometry x="126" width="128" height="53" as="geometry">
            <mxRectangle width="128" height="53" as="alternateBounds" />
          </mxGeometry>
        </mxCell>
        <mxCell id="kwLmYJiWEPaTlT8nFMHR-17" value="&lt;span style=&quot;font-size: 12px;&quot;&gt;Количество товара&lt;/span&gt;" style="shape=partialRectangle;html=1;whiteSpace=wrap;connectable=0;strokeColor=inherit;overflow=hidden;fillColor=none;top=0;left=0;bottom=0;right=0;pointerEvents=1;" vertex="1" parent="kwLmYJiWEPaTlT8nFMHR-14">
          <mxGeometry x="254" width="126" height="53" as="geometry">
            <mxRectangle width="126" height="53" as="alternateBounds" />
          </mxGeometry>
        </mxCell>
        <mxCell id="kwLmYJiWEPaTlT8nFMHR-18" value="" style="shape=tableRow;horizontal=0;startSize=0;swimlaneHead=0;swimlaneBody=0;strokeColor=inherit;top=0;left=0;bottom=0;right=0;collapsible=0;dropTarget=0;fillColor=none;points=[[0,0.5],[1,0.5]];portConstraint=eastwest;" vertex="1" parent="kwLmYJiWEPaTlT8nFMHR-1">
          <mxGeometry y="266" width="380" height="54" as="geometry" />
        </mxCell>
        <mxCell id="kwLmYJiWEPaTlT8nFMHR-19" value="&lt;span style=&quot;font-size: 12px;&quot;&gt;purchased&lt;/span&gt;" style="shape=partialRectangle;html=1;whiteSpace=wrap;connectable=0;strokeColor=inherit;overflow=hidden;fillColor=none;top=0;left=0;bottom=0;right=0;pointerEvents=1;" vertex="1" parent="kwLmYJiWEPaTlT8nFMHR-18">
          <mxGeometry width="126" height="54" as="geometry">
            <mxRectangle width="126" height="54" as="alternateBounds" />
          </mxGeometry>
        </mxCell>
        <mxCell id="kwLmYJiWEPaTlT8nFMHR-20" value="&lt;span style=&quot;font-size: 12px;&quot;&gt;Boolean&lt;/span&gt;" style="shape=partialRectangle;html=1;whiteSpace=wrap;connectable=0;strokeColor=inherit;overflow=hidden;fillColor=none;top=0;left=0;bottom=0;right=0;pointerEvents=1;" vertex="1" parent="kwLmYJiWEPaTlT8nFMHR-18">
          <mxGeometry x="126" width="128" height="54" as="geometry">
            <mxRectangle width="128" height="54" as="alternateBounds" />
          </mxGeometry>
        </mxCell>
        <mxCell id="kwLmYJiWEPaTlT8nFMHR-21" value="&lt;span style=&quot;font-size: 12px;&quot;&gt;Статус покупки (true / false)&lt;/span&gt;" style="shape=partialRectangle;html=1;whiteSpace=wrap;connectable=0;strokeColor=inherit;overflow=hidden;fillColor=none;top=0;left=0;bottom=0;right=0;pointerEvents=1;" vertex="1" parent="kwLmYJiWEPaTlT8nFMHR-18">
          <mxGeometry x="254" width="126" height="54" as="geometry">
            <mxRectangle width="126" height="54" as="alternateBounds" />
          </mxGeometry>
        </mxCell>
        <mxCell id="kwLmYJiWEPaTlT8nFMHR-31" value="&lt;font style=&quot;font-size: 18px;&quot;&gt;Таблица products&lt;/font&gt;" style="text;html=1;align=center;verticalAlign=middle;whiteSpace=wrap;rounded=0;" vertex="1" parent="1">
          <mxGeometry x="300" y="270" width="380" height="50" as="geometry" />
        </mxCell>
      </root>
    </mxGraphModel>
  </diagram>
</mxfile>
